<?xml version="1.0" standalone="no"?>
<!DOCTYPE svg PUBLIC "-//W3C//DTD SVG 20010904//EN"
 "http://www.w3.org/TR/2001/REC-SVG-20010904/DTD/svg10.dtd">
<svg version="1.0" xmlns="http://www.w3.org/2000/svg"
 width="500.000000pt" height="500.000000pt" viewBox="0 0 500.000000 500.000000"
 preserveAspectRatio="xMidYMid meet">

<g transform="translate(0.000000,500.000000) scale(0.100000,-0.100000)"
fill="#000000" stroke="none">
<path d="M2420 4900 c8 -5 20 -10 25 -10 6 0 3 5 -5 10 -8 5 -19 10 -25 10 -5
0 -3 -5 5 -10z"/>
<path d="M2495 4900 c3 -5 8 -10 11 -10 2 0 4 5 4 10 0 6 -5 10 -11 10 -5 0
-7 -4 -4 -10z"/>
<path d="M2565 4770 l40 -7 -40 -3 c-62 -3 -150 -24 -148 -35 0 -6 4 -32 7
-60 l5 -50 -12 55 c-9 38 -18 56 -30 58 -9 2 -17 2 -17 0 0 -2 7 -35 15 -73 8
-39 14 -81 14 -95 -1 -14 -10 15 -20 64 -10 49 -21 91 -24 94 -2 2 -11 2 -19
-1 -12 -5 -12 -15 0 -79 7 -40 16 -83 19 -95 3 -14 1 -23 -6 -23 -7 0 -10 2
-7 5 5 6 -26 172 -34 180 -4 4 -74 -18 -82 -26 -3 -3 6 -41 19 -84 14 -44 25
-89 24 -100 0 -11 -13 23 -28 75 -22 77 -31 95 -47 95 -11 0 -18 -6 -16 -14 2
-8 5 -29 8 -45 l4 -31 -11 30 c-6 17 -12 36 -15 43 -3 10 -9 10 -24 2 -15 -8
-18 -15 -11 -28 12 -23 53 -174 48 -178 -2 -2 -17 39 -33 91 -27 87 -43 111
-59 85 -3 -5 6 -47 20 -93 14 -46 25 -90 24 -98 0 -7 -15 32 -33 88 -31 98
-33 102 -51 89 -19 -14 -19 -16 4 -93 35 -118 35 -129 -1 -23 -18 52 -33 96
-34 98 -2 4 -126 -76 -183 -118 -82 -60 -222 -197 -224 -219 -1 -12 -7 -21
-13 -21 -12 0 -104 -96 -104 -109 0 -3 34 -42 75 -86 41 -44 75 -84 75 -90 -1
-5 -34 25 -73 68 -40 42 -78 77 -85 77 -6 0 -34 -36 -63 -80 -51 -80 -80 -113
-38 -42 27 44 124 196 150 234 23 34 29 67 17 94 -10 20 -12 20 -47 -20 -66
-72 -118 -143 -192 -262 -50 -80 -76 -113 -86 -110 -8 4 -24 6 -36 6 -20 1
-20 2 -4 11 36 21 15 29 -78 29 -79 0 -96 -3 -104 -17 -6 -10 -11 -15 -11 -11
0 3 30 54 66 112 l66 105 101 3 c64 2 100 7 97 13 -3 6 -44 9 -99 7 l-95 -3
22 24 c12 13 19 26 16 30 -4 4 -1 13 6 22 11 13 7 15 -26 15 -32 -1 -36 -3
-21 -11 9 -5 22 -7 28 -3 7 4 6 -3 -2 -17 -7 -13 -10 -26 -8 -29 2 -2 -16 -9
-41 -16 l-45 -12 35 -2 c25 -2 28 -4 13 -7 -23 -4 -33 -23 -12 -23 5 0 7 -5 4
-11 -4 -6 -21 -9 -38 -7 -24 2 -33 -1 -35 -14 -3 -14 3 -18 25 -18 26 -1 27
-1 8 -13 -11 -6 -29 -12 -40 -12 -32 0 -33 -19 -1 -25 23 -4 26 -7 15 -16 -24
-18 -42 -28 -37 -18 3 5 0 14 -7 21 -10 9 -15 6 -24 -13 -10 -22 -9 -24 16
-24 25 0 26 -1 11 -17 -14 -13 -20 -14 -32 -4 -12 10 -18 7 -31 -20 -14 -26
-15 -33 -3 -40 10 -7 10 -9 0 -9 -7 0 -10 -4 -7 -10 3 -6 -4 -10 -17 -10 -18
0 -20 -2 -8 -10 13 -8 12 -10 -2 -10 -20 0 -23 -10 -8 -28 6 -6 7 -10 4 -7 -8
5 -44 -33 -44 -46 0 -4 10 -10 22 -12 21 -4 21 -4 -3 -6 -22 -1 -30 -11 -56
-73 -75 -179 -140 -442 -168 -676 -25 -207 -30 -507 -10 -637 9 -60 18 -130
20 -155 5 -58 26 -122 44 -136 11 -9 11 -13 1 -19 -9 -6 -7 -12 11 -26 19 -14
21 -21 12 -30 -8 -8 -9 -18 -2 -30 5 -10 8 -22 7 -26 -4 -13 24 -103 33 -109
5 -3 9 -16 9 -29 0 -13 4 -27 10 -30 5 -3 10 -15 10 -26 0 -10 4 -27 9 -37 5
-9 33 -66 61 -127 70 -151 216 -370 319 -478 120 -127 185 -184 377 -330 41
-32 74 -60 72 -62 -1 -1 -34 -6 -71 -10 -37 -3 -76 -8 -85 -10 -9 -1 -37 -6
-62 -10 -214 -32 -379 -82 -428 -127 -34 -33 -30 -89 8 -121 46 -39 151 -74
308 -103 65 -12 82 -15 142 -25 36 -5 83 -12 105 -14 54 -6 134 -16 154 -20 9
-1 63 -6 121 -10 58 -3 121 -8 140 -10 19 -2 85 -7 145 -9 61 -3 157 -8 215
-11 143 -7 768 -8 805 -1 17 3 55 8 85 11 30 3 69 7 85 9 17 3 57 8 90 11 33
4 62 8 65 10 3 2 24 6 46 9 66 10 81 14 169 41 47 14 85 30 85 35 0 5 9 7 19
5 15 -3 18 1 14 12 -4 10 -2 14 4 10 15 -9 36 19 27 35 -6 11 -5 11 8 0 13
-10 18 -10 24 -1 4 8 3 9 -4 5 -7 -4 -12 -4 -13 1 0 4 -2 16 -4 25 -2 11 2 15
12 11 12 -5 12 -7 1 -14 -9 -6 -9 -9 -1 -9 19 0 24 17 9 29 -7 6 -12 25 -11
41 1 17 -1 33 -6 36 -5 3 -4 14 1 25 9 15 7 19 -5 19 -9 0 -13 5 -10 10 3 6
-1 10 -9 10 -9 0 -16 5 -16 11 0 5 -4 7 -10 4 -5 -3 -10 -2 -10 3 0 15 -105
50 -230 78 -11 2 -30 6 -42 9 -13 3 -36 8 -53 11 -16 3 -33 10 -37 17 -6 9 -8
9 -8 0 0 -7 -6 -13 -14 -13 -8 0 -16 -3 -18 -7 -1 -5 -21 -16 -43 -26 l-40
-19 22 21 c12 12 27 21 33 21 11 0 9 27 -3 47 -5 8 -1 11 14 8 14 -3 19 0 16
9 -4 9 0 13 11 11 9 -2 21 -4 25 -4 5 -1 5 -6 1 -12 -4 -8 -9 -7 -15 2 -6 10
-9 10 -9 2 0 -19 17 -24 30 -8 7 8 16 13 20 10 5 -3 16 5 25 17 8 13 18 21 21
20 14 -9 13 6 -1 18 -9 7 -15 9 -14 4 4 -23 -3 -26 -22 -8 -11 10 -19 14 -17
9 2 -6 -1 -11 -7 -13 -5 -2 -31 -16 -57 -30 -43 -24 -54 -38 -49 -65 1 -5 -3
-6 -8 -2 -6 3 -8 12 -4 20 4 11 1 13 -11 9 -9 -3 -13 -11 -9 -17 3 -6 1 -7 -5
-3 -6 4 -24 0 -39 -8 -63 -32 -245 -85 -348 -101 -167 -26 -361 -17 -525 25
-137 35 -301 108 -421 185 -194 125 -388 324 -524 534 -53 83 -170 320 -161
328 3 3 10 -6 16 -21 16 -44 90 -188 128 -251 230 -382 581 -659 962 -757 150
-39 361 -49 515 -24 183 31 366 105 538 220 171 114 244 188 207 211 -5 3 -10
12 -10 18 0 7 8 0 18 -16 l19 -27 67 70 c56 58 66 73 60 92 -6 19 -5 21 8 11
12 -11 22 -4 57 39 23 28 40 57 37 64 -3 8 1 11 10 7 9 -3 11 -10 6 -17 -59
-77 -163 -206 -172 -211 -6 -3 -7 -12 -4 -18 4 -7 4 -9 0 -6 -3 3 -29 -16 -56
-44 -71 -70 -73 -74 -59 -83 8 -4 9 -3 5 4 -4 7 -2 12 5 12 7 0 21 7 31 17 20
18 25 5 6 -17 -11 -12 -10 -12 5 -1 9 8 16 21 15 30 -2 9 3 15 10 13 8 -1 11
2 8 7 -4 5 -2 12 3 15 5 4 12 -2 14 -11 4 -17 5 -17 6 0 0 10 6 15 11 12 6 -3
13 1 16 9 3 9 11 13 17 9 6 -3 7 -1 3 5 -4 7 -1 12 9 12 9 0 13 5 10 10 -4 6
-10 8 -14 6 -4 -3 -8 1 -8 9 0 8 3 13 5 10 3 -3 12 1 21 8 14 11 14 10 2 -5
-7 -10 -9 -18 -3 -18 15 0 33 26 24 35 -4 5 -2 5 4 2 6 -3 20 4 33 16 31 31
125 159 152 207 13 22 26 40 31 40 4 0 8 6 8 14 0 8 4 16 9 18 22 8 159 310
210 465 40 119 83 292 76 303 -3 5 -1 11 5 15 5 3 10 16 10 28 0 12 1 44 3 72
2 32 -1 55 -10 63 -10 11 -12 8 -9 -17 2 -17 0 -28 -5 -26 -4 3 -5 31 -1 63
14 123 7 513 -12 637 -78 528 -235 894 -527 1225 -132 150 -335 304 -511 388
-95 46 -288 107 -380 121 -72 10 -376 11 -313 1z m268 -7 c-7 -2 -19 -2 -25 0
-7 3 -2 5 12 5 14 0 19 -2 13 -5z m-132 -25 c4 -34 -3 -303 -7 -310 -3 -4 -11
-8 -18 -8 -27 0 -36 50 -34 188 l2 137 3 -130 c3 -151 7 -175 30 -175 14 0 15
16 9 155 -5 107 -4 155 3 155 6 0 12 -6 12 -12z m66 -69 c-4 -45 -9 -84 -12
-87 -3 -3 -5 34 -5 81 0 58 4 87 11 87 8 0 10 -24 6 -81z m64 6 c-1 -38 -5
-73 -7 -77 -2 -3 1 -10 7 -13 5 -4 7 -14 3 -24 -3 -9 -10 -29 -14 -46 -8 -30
-8 -29 -9 8 -1 34 -4 38 -23 35 -22 -3 -23 -6 -21 -118 l1 -115 -10 114 c-8
77 -8 116 -1 118 35 12 43 30 50 111 7 101 28 107 24 7z m-340 -17 c13 -103
26 -135 65 -162 34 -23 97 -106 88 -116 -3 -3 -10 4 -16 15 -6 11 -37 45 -69
76 -63 61 -75 90 -85 204 -9 91 5 78 17 -17z m406 0 c-6 -74 -18 -113 -29 -91
-2 4 0 45 5 91 12 110 32 110 24 0z m196 0 c-14 -92 -30 -144 -38 -126 -9 21
22 168 36 168 5 0 6 -18 2 -42z m-799 -78 c5 -39 3 -37 -14 20 -22 74 -25 99
-5 55 7 -16 15 -50 19 -75z m866 73 c-1 -24 -38 -161 -40 -148 -7 34 18 165
31 165 5 0 9 -8 9 -17z m46 -92 c-12 -44 -25 -83 -29 -87 -12 -13 -7 49 8 101
22 73 24 77 34 71 5 -3 -1 -41 -13 -85z m-769 27 c-3 -8 -6 -5 -6 6 -1 11 2
17 5 13 3 -3 4 -12 1 -19z m823 -68 c-13 -39 -27 -70 -30 -70 -17 0 -16 16 1
73 29 95 28 92 41 79 9 -9 7 -28 -12 -82z m80 51 c0 -18 -61 -141 -69 -141 -6
0 4 34 22 75 27 66 47 94 47 66z m-1143 -23 c-3 -8 -6 -5 -6 6 -1 11 2 17 5
13 3 -3 4 -12 1 -19z m-202 -35 c8 -20 13 -38 11 -40 -5 -6 -36 51 -36 67 0
20 10 10 25 -27z m1359 -53 c-15 -33 -31 -60 -35 -60 -15 0 -11 15 23 87 20
43 33 62 35 51 3 -10 -8 -45 -23 -78z m-1132 5 c-4 -5 -9 1 -13 15 -12 42 -9
57 5 25 7 -16 11 -34 8 -40z m85 43 c-3 -8 -6 -5 -6 6 -1 11 2 17 5 13 3 -3 4
-12 1 -19z m1125 -9 c-7 -30 -55 -129 -63 -129 -4 0 -11 5 -14 10 -3 6 -3 10
2 10 4 0 19 29 33 65 13 36 29 64 35 61 5 -2 9 -10 7 -17z m-1471 -56 c18 -38
34 -71 36 -75 2 -5 0 -8 -5 -8 -8 0 -72 130 -72 145 0 16 12 -3 41 -62z m1526
25 c-2 -7 -14 -41 -27 -75 -22 -61 -32 -73 -45 -53 -8 13 51 140 65 140 7 0
10 -6 7 -12z m-532 -27 c132 -32 222 -70 325 -135 119 -76 153 -102 234 -177
82 -77 88 -81 101 -63 8 11 14 31 13 45 -2 24 39 95 49 85 3 -2 -2 -15 -11
-28 -9 -12 -16 -33 -16 -45 0 -13 -12 -41 -26 -63 l-26 -39 -27 31 c-41 50
-222 189 -305 236 -99 55 -225 107 -301 123 -33 7 -66 17 -72 22 -19 14 -45
-12 -41 -42 2 -14 9 -25 16 -23 13 2 16 -10 5 -21 -3 -4 -12 -2 -20 4 -10 9
-13 8 -13 -2 0 -30 20 -39 132 -68 422 -106 754 -437 945 -940 35 -93 22 -84
-17 12 -66 164 -162 341 -239 442 -208 272 -466 433 -783 489 l-38 7 -1 -53
c-1 -42 -3 -48 -9 -28 -4 14 -8 75 -8 135 0 64 3 97 7 80 l7 -30 8 33 c9 38 8
37 111 13z m545 -81 c-33 -66 -50 -77 -25 -17 40 96 48 112 52 95 2 -9 -10
-44 -27 -78z m-961 65 c-3 -2 -55 -20 -115 -38 -87 -27 -198 -75 -336 -145 -5
-2 -8 3 -8 11 0 16 208 124 300 156 48 17 172 29 159 16z m1072 -153 c-48 -77
-66 -102 -75 -102 -15 0 -2 28 51 108 65 100 85 95 24 -6z m-941 28 c-19 -5
-75 -16 -125 -24 -107 -20 -244 -70 -340 -126 -43 -26 -62 -33 -51 -21 28 31
211 118 297 141 80 22 174 37 224 38 29 0 29 0 -5 -8z m1030 4 c0 -20 -103
-179 -108 -165 -6 19 82 171 99 171 5 0 9 -3 9 -6z m-1984 -61 c15 -27 38 -65
51 -87 15 -22 19 -36 11 -34 -7 3 -32 41 -56 86 -46 87 -51 114 -6 35z m344
42 c0 -13 -105 -164 -108 -155 -2 6 2 19 10 28 27 32 77 120 71 126 -4 3 1 6
10 6 10 0 17 -2 17 -5z m-72 -24 c-6 -10 -17 -17 -23 -15 -11 4 -150 -134
-254 -251 -29 -33 -48 -50 -42 -39 17 36 234 277 270 301 43 29 66 31 49 4z
m752 2 c0 -5 -26 -9 -58 -10 -31 -1 -109 -18 -173 -37 -243 -74 -381 -157
-550 -333 -90 -95 -102 -105 -60 -51 63 81 150 163 245 229 39 28 70 55 69 60
-2 4 5 5 14 2 11 -4 14 -2 9 5 -8 13 23 31 43 24 8 -2 11 0 8 5 -7 10 42 38
50 29 3 -3 12 2 20 10 9 8 22 13 29 10 8 -3 14 -1 14 5 0 6 7 9 15 5 8 -3 15
-1 15 4 0 5 7 7 15 4 8 -4 15 -1 15 6 0 7 8 9 21 5 16 -5 19 -4 14 6 -6 9 -2
11 13 7 12 -4 22 -3 22 2 0 4 18 8 41 8 23 1 44 3 47 6 8 9 122 7 122 -1z
m250 -28 c184 -50 350 -148 506 -301 72 -71 58 -61 -31 20 -122 112 -313 226
-402 241 -40 6 -42 5 -46 -22 -4 -24 -4 -23 -3 4 2 31 0 33 -59 52 -33 11 -69
22 -80 24 l-20 5 20 1 c11 0 63 -10 115 -24z m-1282 -131 l22 -39 -29 33 c-16
18 -43 54 -61 80 l-32 47 38 -41 c22 -23 49 -59 62 -80z m849 94 c-3 -8 -6 -5
-6 6 -1 11 2 17 5 13 3 -3 4 -12 1 -19z m72 -30 c9 -37 9 -38 -17 -37 -17 1
-21 3 -9 6 9 2 17 11 17 19 0 8 -4 13 -8 10 -5 -3 -6 9 -4 27 3 18 6 28 8 22
2 -5 7 -27 13 -47z m58 30 c-3 -8 -6 -5 -6 6 -1 11 2 17 5 13 3 -3 4 -12 1
-19z m1079 -4 c-8 -28 -67 -123 -78 -123 -5 -1 -8 4 -8 10 0 12 80 139 87 139
3 0 2 -12 -1 -26z m-1709 -1 c-4 -3 2 -12 13 -20 26 -18 25 -43 -1 -77 -23
-30 -34 -33 -43 -10 -3 8 -2 13 2 10 5 -3 18 2 30 10 22 15 29 48 13 58 -20
13 -44 -10 -71 -68 -17 -36 -56 -90 -95 -131 -39 -41 -54 -53 -37 -30 16 22
27 46 24 54 -3 10 0 12 12 8 13 -5 24 5 44 39 48 81 104 164 109 164 4 0 3 -3
0 -7z m923 -14 c0 -6 -4 -7 -10 -4 -5 3 -10 11 -10 16 0 6 5 7 10 4 6 -3 10
-11 10 -16z m67 -75 c-5 -6 -147 33 -156 42 -3 3 7 2 24 -2 16 -4 36 -7 45 -7
8 0 20 -4 27 -9 7 -5 17 -7 23 -3 5 3 10 1 10 -4 0 -6 5 -11 10 -11 6 0 11 19
12 43 l1 42 4 -44 c3 -23 2 -45 0 -47z m-1384 -61 c20 -34 -3 -20 -40 24 -65
78 -81 113 -22 49 30 -32 58 -65 62 -73z m2140 104 c-12 -22 -92 -107 -100
-107 -4 0 7 15 23 33 17 17 41 47 54 65 21 32 41 39 23 9z m-1658 3 c4 -6 -5
-10 -19 -10 -14 0 -26 5 -26 10 0 6 9 10 19 10 11 0 23 -4 26 -10z m297 -21
c8 -24 15 -29 32 -25 54 15 67 15 31 1 -22 -9 -45 -13 -51 -11 -11 4 -38 66
-28 66 3 0 10 -14 16 -31z m48 -4 c0 -5 -5 -3 -10 5 -5 8 -10 20 -10 25 0 6 5
3 10 -5 5 -8 10 -19 10 -25z m40 14 c0 -5 -4 -9 -10 -9 -5 0 -10 7 -10 16 0 8
5 12 10 9 6 -3 10 -10 10 -16z m349 5 c2 -2 -49 -4 -115 -3 -65 1 -108 4 -94
8 25 7 201 3 209 -5z m208 -16 c-3 -7 -5 -2 -5 12 0 14 2 19 5 13 2 -7 2 -19
0 -25z m32 -22 c-2 -25 -5 -43 -9 -41 -6 4 0 85 7 85 2 0 3 -20 2 -44z m-720
-36 c0 -23 -15 7 -22 45 l-6 30 14 -30 c8 -16 14 -37 14 -45z m768 38 c-3 -7
-5 -2 -5 12 0 14 2 19 5 13 2 -7 2 -19 0 -25z m-798 -50 c1 -4 -16 -16 -36
-27 l-38 -19 -18 37 -17 36 23 -27 c26 -32 37 -35 37 -10 0 11 3 13 8 5 4 -7
13 -9 20 -4 10 6 10 15 2 35 -5 15 -10 33 -9 39 0 11 27 -49 28 -65z m208 66
c-3 -3 -12 -4 -19 -1 -8 3 -5 6 6 6 11 1 17 -2 13 -5z m350 -19 c114 -37 123
-47 33 -40 l-75 5 67 -15 c169 -38 350 -145 494 -289 98 -99 212 -260 268
-379 54 -115 52 -132 -2 -21 -75 154 -155 267 -272 385 -144 146 -251 212
-427 265 -117 36 -324 45 -423 19 -72 -19 -187 -69 -262 -115 -27 -17 -53 -28
-59 -25 -5 4 -8 2 -7 -4 2 -5 -13 -21 -32 -36 -19 -14 -71 -60 -115 -103 -68
-66 -74 -70 -40 -27 90 114 191 194 330 261 50 24 87 44 83 44 -14 0 -166 -64
-230 -97 -114 -59 -267 -203 -337 -316 -12 -20 -25 -37 -27 -37 -8 0 18 44 57
96 21 29 36 54 33 58 -2 3 -1 4 2 1 4 -2 14 9 23 25 9 16 55 63 103 106 48 42
85 81 82 86 -3 5 0 8 7 7 8 -1 66 23 129 54 186 90 273 113 437 116 62 1 101
-5 160 -24z m916 13 c-47 -77 -86 -127 -94 -122 -6 3 0 19 14 37 13 18 33 47
46 65 21 30 52 47 34 20z m-656 -30 c-3 -7 -5 -2 -5 12 0 14 2 19 5 13 2 -7 2
-19 0 -25z m-1057 18 c0 -2 -8 -10 -17 -17 -16 -13 -17 -12 -4 4 13 16 21 21
21 13z m957 -23 c-3 -3 -11 -2 -17 2 -9 6 -9 10 1 16 14 8 27 -7 16 -18z
m-2014 10 c-7 -2 -21 -2 -30 0 -10 3 -4 5 12 5 17 0 24 -2 18 -5z m2134 -40
c-3 -10 -5 -2 -5 17 0 19 2 27 5 18 2 -10 2 -26 0 -35z m-767 33 c0 -2 -7 -7
-16 -10 -8 -3 -12 -2 -9 4 6 10 25 14 25 6z m702 -18 c-7 -7 -12 -8 -12 -2 0
6 3 14 7 17 3 4 9 5 12 2 2 -3 -1 -11 -7 -17z m-1067 -6 c-11 -10 -47 -43 -81
-73 -44 -39 -40 -34 14 19 41 39 78 72 81 72 3 0 -3 -8 -14 -18z m1108 -3 c5
-3 2 -9 -7 -12 -12 -5 -16 0 -16 15 0 12 3 17 8 12 4 -5 11 -12 15 -15z m-918
-39 c5 -21 3 -20 -14 8 -24 37 -27 53 -7 32 8 -8 17 -26 21 -40z m1626 33
c-20 -34 -90 -108 -91 -95 0 19 72 112 87 112 10 0 11 -5 4 -17z m-2052 -43
c-31 -38 -39 -46 -39 -35 0 6 61 75 67 75 2 0 -11 -18 -28 -40z m383 23 c31
-37 30 -47 -3 -18 -19 17 -36 31 -38 33 -2 1 2 2 11 2 8 0 22 -8 30 -17z
m1022 1 c5 -14 4 -15 -9 -4 -17 14 -19 20 -6 20 5 0 12 -7 15 -16z m-1063 -26
c8 -15 8 -18 0 -14 -6 4 -16 16 -22 28 -8 15 -8 18 0 14 6 -4 16 -16 22 -28z
m1544 -72 c28 -36 53 -65 56 -66 3 0 32 36 64 80 40 54 62 77 69 70 7 -7 -3
-24 -30 -53 -45 -48 -105 -122 -122 -152 -6 -11 -12 -15 -12 -10 0 6 6 19 14
30 12 18 7 27 -60 107 -41 48 -74 91 -74 94 0 13 44 -33 95 -100z m-398 62
c-3 -8 -6 -5 -6 6 -1 11 2 17 5 13 3 -3 4 -12 1 -19z m20 0 c-3 -8 -6 -5 -6 6
-1 11 2 17 5 13 3 -3 4 -12 1 -19z m-1547 8 c0 -2 -7 -7 -16 -10 -8 -3 -12 -2
-9 4 6 10 25 14 25 6z m355 -27 c22 -42 15 -44 -12 -3 -12 19 -18 34 -13 34 5
0 17 -14 25 -31z m1212 9 c-3 -8 -6 -5 -6 6 -1 11 2 17 5 13 3 -3 4 -12 1 -19z
m-363 0 c27 -11 30 -19 41 -80 5 -34 8 -69 19 -265 5 -71 22 -116 52 -127 8
-3 14 -16 14 -28 0 -20 -5 -18 -45 23 l-46 45 -15 175 c-9 95 -20 176 -24 179
-5 3 -110 6 -234 8 l-226 3 -92 -47 c-85 -45 -237 -148 -253 -173 -3 -6 5 -25
19 -42 27 -32 33 -49 16 -49 -13 0 -102 81 -98 89 2 3 46 47 98 96 102 96 209
162 311 189 69 19 425 22 463 4z m-876 -18 c7 -11 11 -20 9 -20 -2 0 -12 9
-22 20 -10 11 -14 20 -9 20 5 0 15 -9 22 -20z m102 10 c0 -5 -2 -10 -4 -10 -3
0 -8 5 -11 10 -3 6 -1 10 4 10 6 0 11 -4 11 -10z m1177 -12 c-3 -8 -6 -5 -6 6
-1 11 2 17 5 13 3 -3 4 -12 1 -19z m-71 -1 c8 3 14 1 14 -5 0 -14 -33 -8 -36
7 -1 6 0 7 2 2 3 -6 12 -7 20 -4z m614 6 c0 -5 -9 -21 -20 -38 -11 -16 -20
-41 -20 -55 0 -14 -12 -43 -26 -65 -27 -43 -27 -41 0 19 9 21 16 48 14 60 -3
18 -6 15 -28 -19 -14 -22 -24 -43 -22 -47 1 -5 -5 -8 -13 -8 -18 0 -35 -38
-27 -60 3 -8 16 -32 30 -54 13 -21 19 -35 13 -32 -6 4 -22 27 -37 51 -28 49
-28 49 31 136 67 99 105 140 105 112z m-1830 -43 c12 -17 18 -30 13 -30 -4 0
-18 16 -31 36 -28 42 -13 37 18 -6z m-339 -9 c-11 -21 -27 -41 -36 -45 -10 -3
-5 10 15 39 38 55 47 58 21 6z m329 -35 c0 -6 -9 4 -20 22 -11 17 -25 32 -30
32 -6 0 -8 5 -5 11 7 11 55 -46 55 -65z m-1130 44 c0 -5 -12 -10 -27 -9 l-28
1 25 8 c14 4 26 8 28 9 1 1 2 -3 2 -9z m2469 -21 c1 8 3 12 6 9 3 -3 2 -13 -1
-22 -5 -14 -9 -15 -15 -4 -5 7 -8 22 -8 33 1 16 2 16 9 -5 4 -14 8 -19 9 -11z
m-2109 -39 c-12 -23 -24 -40 -26 -37 -3 3 5 23 18 45 30 53 36 46 8 -8z m740
19 c15 -28 5 -23 -15 7 -9 15 -12 23 -6 20 6 -4 16 -16 21 -27z m-924 12 c-6
-9 21 -36 42 -42 6 -2 -42 -4 -108 -4 -89 0 -121 3 -125 13 -3 7 -1 10 5 7 5
-3 14 4 20 15 9 18 21 20 91 20 44 0 78 -4 75 -9z m551 -43 c-3 -7 -5 -2 -5
12 0 14 2 19 5 13 2 -7 2 -19 0 -25z m1784 9 c-10 -9 -11 -8 -5 6 3 10 9 15
12 12 3 -3 0 -11 -7 -18z m19 -17 c-6 -11 -13 -20 -16 -20 -2 0 0 9 6 20 6 11
13 20 16 20 2 0 0 -9 -6 -20z m-987 3 c-7 -2 -19 -2 -25 0 -7 3 -2 5 12 5 14
0 19 -2 13 -5z m274 -2 c29 -1 40 -41 51 -201 10 -138 14 -149 110 -305 47
-75 57 -110 26 -84 -7 6 -46 65 -85 130 l-71 120 -7 162 -6 162 -130 5 c-129
5 -129 6 -45 10 47 3 96 4 110 3 14 0 35 -1 47 -2z m957 -88 c3 -11 25 -44 47
-74 62 -82 159 -284 158 -328 -1 -35 -2 -35 -9 9 -10 57 -87 213 -148 300 -25
36 -50 67 -54 68 -4 2 -8 10 -8 19 0 20 -39 74 -50 68 -4 -3 -6 4 -3 15 5 17
9 15 33 -18 15 -21 30 -47 34 -59z m-154 62 c13 -14 21 -25 18 -25 -2 0 -15
11 -28 25 -13 14 -21 25 -18 25 2 0 15 -11 28 -25z m-2606 -16 c-3 -5 -10 -7
-15 -3 -5 3 -7 10 -3 15 3 5 10 7 15 3 5 -3 7 -10 3 -15z m418 -9 c53 -35 94
-78 65 -67 -18 7 -127 87 -127 93 0 10 20 1 62 -26z m338 -29 c-18 -28 -34
-51 -37 -51 -5 0 13 32 47 87 8 12 16 21 18 19 2 -2 -11 -27 -28 -55z m-447
34 c-3 -9 -8 -14 -10 -11 -3 3 -2 9 2 15 9 16 15 13 8 -4z m643 3 c4 -7 3 -8
-4 -4 -7 4 -12 2 -12 -5 0 -7 -3 -10 -6 -6 -6 5 3 27 11 27 2 0 7 -5 11 -12z
m2084 3 c0 -13 -110 -114 -117 -107 -4 4 18 31 47 61 52 53 70 65 70 46z
m-347 -101 c10 -16 15 -30 10 -30 -4 1 -23 26 -40 58 -23 39 -26 48 -10 30 12
-15 31 -41 40 -58z m358 42 c-9 -17 -116 -114 -132 -120 -6 -2 -8 0 -7 5 2 4
-9 24 -23 43 -15 19 -30 46 -34 60 -7 24 -7 24 9 5 8 -11 16 -24 16 -29 0 -4
11 -21 24 -36 l23 -28 49 50 c27 28 42 47 34 43 -12 -7 -13 -6 -3 6 6 8 21 15
32 16 17 1 19 -2 12 -15z m-2601 -93 c0 -17 -15 -9 -68 37 -71 62 -66 76 8 19
33 -25 60 -50 60 -56z m410 97 c0 -2 -8 -10 -17 -17 -16 -13 -17 -12 -4 4 13
16 21 21 21 13z m-225 -24 c-3 -3 -11 0 -18 7 -9 10 -8 11 6 5 10 -3 15 -9 12
-12z m925 8 c0 -6 -11 -33 -25 -59 -13 -27 -32 -77 -42 -111 -11 -42 -25 -67
-41 -78 -49 -33 -78 -70 -126 -163 -27 -51 -51 -88 -54 -81 -7 21 113 237 134
241 33 6 52 31 65 84 18 81 60 177 75 177 8 0 14 -5 14 -10z m1540 -29 c0 -4
-36 -42 -79 -84 l-79 -76 54 -161 c30 -88 54 -168 53 -178 0 -9 -22 48 -48
128 -27 80 -67 184 -89 233 -44 93 -48 110 -11 50 12 -21 24 -40 25 -41 6 -8
93 59 125 96 34 40 49 50 49 33z m-2230 -21 c0 -5 -2 -10 -4 -10 -3 0 -8 5
-11 10 -3 6 -1 10 4 10 6 0 11 -4 11 -10z m830 -35 c0 -13 -192 -400 -205
-413 -3 -3 -7 -3 -10 0 -3 3 37 92 90 198 52 105 95 200 95 211 0 10 7 19 15
19 8 0 15 -7 15 -15z m1101 -135 c44 -80 79 -149 79 -155 0 -5 -28 42 -61 105
-34 63 -67 122 -73 130 -28 34 -47 72 -36 68 7 -2 48 -69 91 -148z m-2121 125
c-7 -8 -17 -15 -23 -15 -6 0 -2 7 9 15 25 19 30 19 14 0z m-302 -41 c38 -37
41 -43 16 -28 -17 11 -46 31 -65 46 -26 21 -30 28 -16 28 10 0 39 -21 65 -46z
m-159 -40 c-12 -32 -26 -63 -31 -69 -5 -5 2 21 16 59 14 37 26 71 26 74 0 3 2
3 5 0 3 -3 -4 -32 -16 -64z m767 32 c-1 -7 -10 -24 -19 -37 l-18 -24 13 25 c7
14 13 28 14 33 3 15 4 17 8 17 2 0 3 -6 2 -14z m-889 -12 c-3 -3 -12 -4 -19
-1 -8 3 -5 6 6 6 11 1 17 -2 13 -5z m783 -54 c-11 -22 -23 -40 -25 -40 -3 0 4
18 15 40 11 22 23 40 25 40 3 0 -4 -18 -15 -40z m-533 -2 c31 -17 52 -33 46
-35 -12 -4 -133 53 -133 62 0 13 36 2 87 -27z m813 1 c0 -11 -194 -299 -198
-294 -5 5 37 84 89 165 26 41 55 91 65 112 10 23 22 34 30 31 8 -3 14 -9 14
-14z m1560 11 c0 -5 -5 -10 -11 -10 -5 0 -7 5 -4 10 3 6 8 10 11 10 2 0 4 -4
4 -10z m34 -52 c4 3 4 -2 0 -13 -7 -18 -6 -18 9 -6 9 7 14 18 10 25 -4 8 -3 8
7 0 9 -10 8 -16 -7 -31 -19 -19 -20 -19 -41 21 -18 34 -18 37 -3 19 10 -12 22
-19 25 -15z m-1849 -38 c-9 -16 -18 -30 -21 -30 -2 0 2 14 11 30 9 17 18 30
21 30 2 0 -2 -13 -11 -30z m-594 -6 c33 -15 58 -29 56 -31 -6 -5 -119 37 -131
48 -19 17 17 9 75 -17z m2479 -9 c-7 -8 -18 -15 -24 -15 -6 0 -2 7 8 15 25 19
32 19 16 0z m403 -11 c4 -4 -23 -27 -59 -51 -62 -41 -85 -49 -69 -23 7 11 106
80 116 80 3 0 9 -3 12 -6z m-403 -39 c0 -7 7 -20 15 -29 9 -9 11 -17 5 -21 -5
-3 -10 -4 -10 -2 0 3 -7 21 -16 42 -8 20 -10 34 -5 30 6 -3 11 -12 11 -20z
m-2495 -31 c28 -12 43 -23 35 -23 -8 0 -42 13 -75 29 -68 34 -36 29 40 -6z
m2915 30 c0 -3 -15 -19 -32 -36 -23 -20 -26 -27 -11 -19 27 14 56 14 48 1 -3
-5 -22 -12 -42 -16 -23 -4 -37 -13 -40 -25 -6 -23 -23 -15 -23 11 0 10 15 29
33 41 17 13 36 29 40 36 8 13 27 18 27 7z m-310 -69 c0 -5 -5 -3 -10 5 -5 8
-10 20 -10 25 0 6 5 3 10 -5 5 -8 10 -19 10 -25z m-49 -53 c2 2 1 -1 -3 -6
-10 -12 -14 -7 -22 24 l-7 25 14 -23 c7 -12 15 -21 18 -20z m-696 1 c36 -40
33 -87 -11 -174 -48 -96 -57 -79 -10 21 31 65 36 85 29 107 -14 41 -37 51 -64
28 -21 -19 -113 -152 -122 -178 -7 -21 -19 0 -12 22 3 11 33 61 65 111 66 100
82 108 125 63z m520 11 c22 -9 45 -57 45 -94 0 -98 -109 -109 -140 -14 -24 72
30 133 95 108z m405 -4 c0 -5 -7 -10 -15 -10 -8 0 -15 5 -15 10 0 6 7 10 15
10 8 0 15 -4 15 -10z m150 -1 c0 -6 -10 -13 -21 -16 -12 -4 -41 -16 -65 -29
-42 -23 -52 -22 -36 2 8 12 89 52 110 53 6 1 12 -4 12 -10z m-3103 -31 c-3 -8
-6 -5 -6 6 -1 11 2 17 5 13 3 -3 4 -12 1 -19z m2830 0 c-3 -8 -6 -5 -6 6 -1
11 2 17 5 13 3 -3 4 -12 1 -19z m278 -7 c-3 -6 -11 -11 -17 -11 -6 0 -6 6 2
15 14 17 26 13 15 -4z m-2960 -6 c39 -17 21 -18 -25 0 -19 7 -28 14 -20 14 8
0 29 -6 45 -14z m1205 -1 c357 -7 371 -10 388 -66 21 -67 24 -115 9 -151 -8
-19 -63 -101 -123 -183 -229 -317 -302 -423 -338 -492 l-16 -30 218 5 c257 7
246 11 240 -97 -6 -104 -16 -111 -165 -121 -65 -4 -205 -13 -310 -20 -160 -10
-195 -9 -209 2 -14 11 -15 29 -9 128 l7 116 48 70 c50 74 188 265 340 471 50
67 90 127 90 133 0 8 -59 11 -194 11 -190 0 -195 0 -223 24 -24 20 -123 190
-123 211 0 4 10 5 23 2 12 -3 168 -9 347 -13z m1401 -54 c5 0 9 -17 9 -37 0
-35 -2 -33 -25 32 -27 77 -32 101 -8 43 9 -21 20 -38 24 -38z m139 25 c0 -5
-5 -3 -10 5 -5 8 -10 20 -10 25 0 6 5 3 10 -5 5 -8 10 -19 10 -25z m-201 -84
c12 -49 21 -97 20 -107 0 -11 -11 26 -24 81 -26 109 -27 115 -21 115 2 0 14
-40 25 -89z m267 70 c-5 -8 15 -126 30 -173 5 -15 18 -18 87 -18 47 0 77 -4
71 -9 -13 -12 -136 -22 -152 -13 -7 5 -20 46 -30 91 -15 71 -22 85 -45 97 -28
15 -37 27 -13 18 8 -3 23 -1 33 5 23 13 26 13 19 2z m164 -9 c0 -15 -94 -32
-102 -19 -13 20 -10 22 47 25 30 1 55 -1 55 -6z m-3041 -18 c29 -8 51 -17 49
-19 -5 -5 -108 25 -108 31 0 6 1 6 59 -12z m-105 -43 c-4 -23 -9 -40 -11 -37
-3 3 -2 23 2 46 4 23 9 39 11 37 3 -2 2 -23 -2 -46z m2927 -166 c32 -198 52
-223 175 -223 41 0 78 -3 81 -6 4 -3 -34 -6 -84 -6 l-90 0 -32 40 c-33 41 -43
78 -75 270 -9 52 -18 106 -21 120 -3 14 2 5 10 -20 9 -25 25 -103 36 -175z
m-2181 169 c8 -16 27 -50 42 -75 39 -64 35 -68 -12 -14 -41 48 -70 95 -70 115
0 20 25 4 40 -26z m2410 7 c0 -8 -74 -31 -99 -31 -28 0 -6 18 32 27 56 14 67
15 67 4z m0 -26 c0 -6 -38 -22 -75 -31 -41 -10 -28 12 13 23 45 13 62 15 62 8z
m-330 -35 c-13 -11 -26 -17 -29 -14 -7 6 28 34 42 34 6 0 0 -9 -13 -20z
m-2676 -10 c11 -11 -37 -4 -84 12 -17 5 -9 6 25 3 27 -3 54 -10 59 -15z m-167
-42 c-2 -13 -4 -5 -4 17 -1 22 1 32 4 23 2 -10 2 -28 0 -40z m2185 -4 c122
-41 208 -189 208 -358 0 -138 -86 -281 -194 -324 -111 -44 -222 -25 -299 52
-111 111 -136 304 -62 478 5 13 1 19 -19 24 -14 3 -26 12 -26 18 0 17 48 60
95 85 47 25 59 26 51 6 -5 -13 -2 -13 20 1 52 35 154 43 226 18z m428 -321 c0
-181 -4 -334 -8 -341 -5 -7 -25 -15 -45 -19 -69 -11 -67 -19 -67 353 l0 334
60 0 60 0 0 -327z m-2470 275 c10 -6 -1 -7 -30 -2 -25 3 -52 10 -60 16 -10 6
1 7 30 2 25 -3 52 -10 60 -16z m2635 -78 c3 -6 2 -10 -3 -10 -10 0 -23 50 -21
84 1 11 5 2 10 -22 4 -23 11 -47 14 -52z m-2788 -12 c-2 -18 -4 -6 -4 27 0 33
2 48 4 33 2 -15 2 -42 0 -60z m108 13 l40 -9 -40 0 c-22 0 -49 3 -60 8 l-20 9
20 0 c11 0 38 -4 60 -8z m-113 -281 c3 -113 2 -185 -2 -160 -7 50 -13 377 -7
370 2 -3 6 -97 9 -210z m121 183 c-13 -2 -33 -2 -45 0 -13 2 -3 4 22 4 25 0
35 -2 23 -4z m980 -13 c3 -11 1 -20 -4 -20 -5 0 -9 9 -9 20 0 11 2 20 4 20 2
0 6 -9 9 -20z m2112 10 c-3 -6 -47 -10 -98 -10 -63 0 -87 3 -77 10 20 13 183
13 175 0z m-212 -131 c17 -1 43 -5 57 -9 25 -8 24 -8 -5 -9 -56 -2 -99 17
-122 54 -33 51 -28 55 7 7 24 -34 37 -42 63 -43z m200 -76 c-13 -2 -35 -2 -50
0 -16 2 -5 4 22 4 28 0 40 -2 28 -4z m-141 -15 c8 -4 -11 -8 -44 -8 l-58 0
-25 -50 c-35 -70 -60 -90 -111 -90 -24 0 -44 -5 -47 -12 -3 -7 -5 0 -4 15 2
29 13 32 60 12 23 -10 90 58 108 110 13 35 15 36 61 34 26 -2 53 -6 60 -11z
m131 -25 c-13 -2 -35 -2 -50 0 -16 2 -5 4 22 4 28 0 40 -2 28 -4z m-3068 -52
c-15 -12 -75 -22 -75 -11 0 8 22 14 70 19 8 0 10 -2 5 -8z m3085 -11 c26 -16
5 -19 -45 -5 l-50 13 40 1 c22 0 47 -3 55 -9z m-1505 -65 c-14 -25 -36 -51
-48 -59 -25 -16 -246 -29 -267 -16 -15 10 14 15 125 25 83 7 119 23 171 76 47
48 56 36 19 -26z m1485 -4 c14 -4 20 -9 15 -12 -6 -3 -30 0 -55 7 -38 10 -40
12 -15 12 17 0 41 -3 55 -7z m-3173 -73 c-2 -13 -4 -5 -4 17 -1 22 1 32 4 23
2 -10 2 -28 0 -40z m128 43 c-15 -15 -85 -25 -85 -13 0 12 22 19 65 21 18 1
25 -3 20 -8z m3040 -32 c14 -7 7 -7 -20 -3 -22 3 -47 10 -55 15 -18 12 44 1
75 -12z m-3025 -29 c-8 -5 -24 -9 -35 -9 l-20 0 20 9 c11 5 27 9 35 9 13 1 13
0 0 -9z m-133 -42 c-3 -7 -5 -2 -5 12 0 14 2 19 5 13 2 -7 2 -19 0 -25z m3153
-8 c0 -5 -7 -7 -15 -4 -8 4 -15 8 -15 10 0 2 7 4 15 4 8 0 15 -4 15 -10z
m-2451 -80 c0 -10 -3 -8 -9 5 -12 27 -12 43 0 25 5 -8 9 -22 9 -30z m-544 20
c-7 -11 -77 -32 -83 -25 -6 6 57 34 76 35 7 0 11 -4 7 -10z m2980 -10 c3 -6
-1 -7 -9 -4 -18 7 -21 14 -7 14 6 0 13 -4 16 -10z m-2955 -55 c0 -11 -62 -35
-72 -29 -7 5 1 12 23 20 39 14 49 16 49 9z m560 -70 c0 -5 -5 -3 -10 5 -5 8
-10 20 -10 25 0 6 5 3 10 -5 5 -8 10 -19 10 -25z m168 -295 c26 -36 93 -111
150 -167 57 -57 98 -103 91 -103 -19 0 -198 186 -251 260 -45 63 -158 268
-158 286 0 5 27 -41 61 -101 34 -61 82 -139 107 -175z m2172 213 c0 -7 -39 17
-46 28 -3 6 5 3 20 -6 14 -10 26 -19 26 -22z m-2875 -3 c-9 -15 -45 -32 -45
-22 0 5 10 14 23 20 29 14 29 14 22 2z m2079 -102 c3 -13 6 -64 6 -115 0 -131
-8 -132 -90 -17 l-35 49 -5 -75 c-4 -61 -8 -75 -22 -78 -16 -3 -18 8 -18 123
0 115 2 126 17 123 10 -2 32 -26 50 -53 63 -99 62 -99 63 -19 0 39 3 74 7 77
12 12 21 7 27 -15z m-284 -123 c0 -104 -2 -125 -15 -125 -13 0 -15 21 -15 125
0 104 2 125 15 125 13 0 15 -21 15 -125z m-187 76 c68 -81 22 -220 -74 -221
-42 0 -71 26 -89 83 -10 31 -9 45 5 87 19 58 45 80 96 80 29 0 43 -7 62 -29z
m-312 9 c10 -6 19 -20 19 -31 0 -18 -4 -20 -43 -14 -34 5 -46 3 -59 -12 -26
-28 -36 -65 -26 -99 12 -46 33 -60 68 -47 46 17 71 -23 28 -45 -54 -26 -67
-25 -103 11 -32 32 -35 40 -35 91 0 64 17 104 56 135 29 23 64 27 95 11z
m1039 -10 c-6 -11 -13 -20 -16 -20 -2 0 0 9 6 20 6 11 13 20 16 20 2 0 0 -9
-6 -20z m-2260 -54 c0 -2 -8 -10 -17 -17 -16 -13 -17 -12 -4 4 13 16 21 21 21
13z m2139 -121 c-59 -81 -41 -77 -618 -149 -288 -36 -526 -68 -529 -71 -8 -8
115 -60 198 -85 107 -31 271 -38 381 -16 141 29 280 94 414 193 l50 37 -40
-43 c-90 -95 -246 -177 -408 -213 -77 -17 -109 -19 -197 -13 -58 4 -120 7
-138 7 -18 0 -30 3 -28 7 3 4 -11 7 -30 7 -20 0 -38 5 -42 11 -4 5 -27 19 -52
30 -63 28 -163 93 -155 101 4 4 52 12 108 19 289 33 956 113 982 118 19 3 50
24 80 55 27 28 51 50 53 50 2 0 -11 -20 -29 -45z m22 -44 c-156 -219 -528
-399 -781 -377 -90 8 -215 38 -273 66 -23 11 -33 17 -22 14 171 -57 177 -58
320 -57 122 0 151 3 230 27 168 49 307 134 454 275 47 45 86 81 89 81 2 0 -6
-13 -17 -29z m239 -45 c0 -2 -8 -10 -17 -17 -16 -13 -17 -12 -4 4 13 16 21 21
21 13z m-40 -50 c0 -2 -8 -10 -17 -17 -16 -13 -17 -12 -4 4 13 16 21 21 21 13z
m43 -30 c4 -10 0 -12 -14 -9 -10 3 -16 9 -13 14 8 13 21 11 27 -5z m-1493 -82
c0 -2 -9 0 -20 6 -11 6 -20 13 -20 16 0 2 9 0 20 -6 11 -6 20 -13 20 -16z
m-273 -20 c-3 -3 -12 -4 -19 -1 -8 3 -5 6 6 6 11 1 17 -2 13 -5z m338 -22 c-3
-3 -11 0 -18 7 -9 10 -8 11 6 5 10 -3 15 -9 12 -12z m1055 -53 c-47 -38 -174
-122 -160 -107 9 11 175 128 180 128 3 0 -6 -10 -20 -21z m409 -13 c7 -8 8
-17 3 -20 -6 -3 -12 3 -15 14 -6 24 -4 25 12 6z m-374 -72 c-115 -99 -327
-214 -395 -213 -15 0 10 14 64 36 108 43 179 84 283 162 83 63 114 73 48 15z
m-1390 -24 c-3 -5 -12 -10 -18 -10 -7 0 -6 4 3 10 19 12 23 12 15 0z m125 -70
c98 -69 283 -139 428 -165 115 -20 116 -20 157 17 l36 31 -21 -36 c-22 -37
-22 -37 -90 -37 -173 0 -511 135 -606 241 -16 19 -12 18 26 -6 25 -15 56 -36
70 -45z m1060 65 c0 -2 -13 -11 -30 -20 -38 -19 -40 -11 -2 9 31 17 32 18 32
11z m285 -45 c3 -5 1 -10 -4 -10 -6 0 -11 5 -11 10 0 6 2 10 4 10 3 0 8 -4 11
-10z m-45 -46 c0 -8 -5 -12 -10 -9 -6 4 -8 11 -5 16 9 14 15 11 15 -7z m251
-41 c-8 -14 -10 -15 -11 -3 0 13 -1 13 -11 0 -9 -13 -10 -13 -6 0 2 8 10 14
16 13 6 -2 11 5 12 15 0 9 3 12 5 5 3 -7 1 -20 -5 -30z m-41 -6 c0 -2 -17 -19
-37 -38 l-38 -34 34 38 c33 34 41 42 41 34z m-300 -11 c0 -3 -4 -8 -10 -11 -5
-3 -10 -1 -10 4 0 6 5 11 10 11 6 0 10 -2 10 -4z m-160 -86 c0 -5 -5 -10 -11
-10 -5 0 -7 5 -4 10 3 6 8 10 11 10 2 0 4 -4 4 -10z m217 -153 c-4 -14 -35
-18 -44 -5 -3 6 -1 8 4 5 6 -4 14 0 17 9 6 17 29 9 23 -9z"/>
<path d="M2250 4140 c-9 -6 -10 -10 -3 -10 6 0 15 5 18 10 8 12 4 12 -15 0z"/>
<path d="M2538 4043 c7 -3 16 -2 19 1 4 3 -2 6 -13 5 -11 0 -14 -3 -6 -6z"/>
<path d="M3105 2841 c-43 -26 -62 -51 -80 -100 -41 -118 7 -250 102 -282 47
-15 92 -5 136 32 55 45 77 95 77 174 0 76 -22 128 -70 169 -39 33 -118 36
-165 7z"/>
<path d="M2804 1797 c-21 -18 -27 -32 -27 -65 0 -46 24 -82 53 -82 44 0 83 86
60 131 -24 45 -47 50 -86 16z"/>
<path d="M2483 4763 c9 -2 23 -2 30 0 6 3 -1 5 -18 5 -16 0 -22 -2 -12 -5z"/>
<path d="M2428 4753 c7 -3 16 -2 19 1 4 3 -2 6 -13 5 -11 0 -14 -3 -6 -6z"/>
<path d="M1730 4728 c0 -9 5 -20 11 -23 17 -11 20 0 4 21 -13 17 -14 17 -15 2z"/>
<path d="M1770 4720 c0 -5 6 -10 14 -10 8 0 18 5 21 10 3 6 -3 10 -14 10 -12
0 -21 -4 -21 -10z"/>
<path d="M1777 4679 c7 -7 15 -10 18 -7 3 3 -2 9 -12 12 -14 6 -15 5 -6 -5z"/>
<path d="M1735 4660 c27 -12 43 -12 25 0 -8 5 -22 9 -30 9 -10 0 -8 -3 5 -9z"/>
<path d="M1585 4650 c4 -6 -5 -10 -19 -10 -14 0 -26 -4 -26 -9 0 -15 40 -20
53 -6 7 7 22 13 33 12 10 0 28 1 39 3 17 2 17 3 -5 10 -37 12 -82 12 -75 0z"/>
<path d="M1738 4633 c7 -3 16 -2 19 1 4 3 -2 6 -13 5 -11 0 -14 -3 -6 -6z"/>
<path d="M1506 4601 c-20 -8 -20 -8 0 -13 24 -6 46 1 38 13 -6 10 -12 10 -38
0z"/>
<path d="M1580 4590 c-11 -7 2 -10 43 -10 36 0 56 4 52 10 -8 13 -75 13 -95 0z"/>
<path d="M1430 4570 c0 -5 5 -10 11 -10 6 0 9 -7 6 -15 -5 -12 0 -12 28 2 19
9 34 17 32 18 -11 10 -77 14 -77 5z"/>
<path d="M1562 4555 c8 -9 128 -11 128 -3 0 4 -30 8 -67 8 -36 0 -64 -2 -61
-5z"/>
<path d="M1387 4520 c6 -7 9 -19 5 -28 -4 -12 -1 -14 12 -9 10 4 58 7 107 7
72 0 89 3 89 15 0 12 -17 15 -94 15 -52 0 -103 3 -113 6 -14 6 -16 4 -6 -6z"/>
<path d="M1344 4505 c-17 -13 -17 -14 -2 -15 9 0 20 5 23 11 11 17 0 20 -21 4z"/>
<path d="M1295 4460 c-8 -14 17 -18 116 -19 51 -1 109 -4 127 -7 18 -4 32 -2
32 3 0 13 -192 32 -204 21 -13 -10 -39 -11 -32 0 2 4 -4 8 -14 9 -11 1 -22 -2
-25 -7z"/>
<path d="M1268 4408 c19 -19 14 -31 -9 -25 -15 4 -28 -2 -44 -21 l-23 -27 21
-12 c12 -7 28 -12 35 -13 19 0 14 16 -8 26 -13 6 -17 13 -11 23 6 10 13 10 29
2 15 -8 23 -7 32 4 9 11 36 15 106 15 51 0 96 4 99 10 4 6 -28 10 -89 10 -52
0 -98 4 -101 10 -3 6 -16 10 -28 10 -16 0 -18 -3 -9 -12z"/>
<path d="M1390 4306 c0 -2 11 -6 25 -8 14 -3 25 -1 25 3 0 5 -11 9 -25 9 -14
0 -25 -2 -25 -4z"/>
<path d="M1195 4280 c3 -5 12 -7 20 -3 21 7 19 13 -6 13 -11 0 -18 -4 -14 -10z"/>
<path d="M1325 4240 c3 -5 20 -10 36 -10 18 0 28 4 24 10 -3 6 -20 10 -36 10
-18 0 -28 -4 -24 -10z"/>
<path d="M1085 4200 c-3 -5 3 -10 14 -10 12 0 21 5 21 10 0 6 -6 10 -14 10 -8
0 -18 -4 -21 -10z"/>
<path d="M1268 4083 c7 -3 16 -2 19 1 4 3 -2 6 -13 5 -11 0 -14 -3 -6 -6z"/>
<path d="M1207 4014 c-15 -15 -6 -24 23 -24 17 0 30 5 30 10 0 6 -4 10 -9 10
-5 0 -16 2 -23 5 -8 3 -17 2 -21 -1z"/>
<path d="M3610 960 c0 -5 5 -10 11 -10 5 0 7 5 4 10 -3 6 -8 10 -11 10 -2 0
-4 -4 -4 -10z"/>
<path d="M3509 908 c-1 -7 -3 -23 -4 -36 -2 -21 -1 -22 16 -6 23 21 25 32 3
13 -13 -11 -14 -9 -9 14 4 15 4 27 1 27 -3 0 -7 -6 -7 -12z"/>
<path d="M3553 901 c0 -11 5 -18 9 -15 4 3 5 11 1 19 -7 21 -12 19 -10 -4z"/>
<path d="M3480 891 c-7 -15 -7 -22 2 -27 7 -4 10 -4 6 1 -4 4 -3 16 3 26 5 11
7 19 5 19 -3 0 -10 -9 -16 -19z"/>
<path d="M3343 754 c0 -7 8 -12 18 -11 9 1 15 6 12 12 -5 16 -30 15 -30 -1z"/>
<path d="M3825 561 c-3 -5 -1 -12 4 -15 5 -3 7 -19 6 -36 -1 -16 1 -28 5 -25
6 4 6 51 0 65 -1 3 -2 8 -1 13 1 10 -7 9 -14 -2z"/>
</g>
</svg>
